<svg width="91" height="91" viewBox="0 0 91 91" fill="none" xmlns="http://www.w3.org/2000/svg">
<path d="M20.2491 54.6142L17.1037 66.2557L5.60741 66.4968C2.17169 60.179 0.2229 52.9506 0.2229 45.2691C0.2229 37.8413 2.04497 30.8366 5.27473 24.6689H5.2772L15.5122 26.5293L19.9957 36.6156C19.0573 39.3279 18.5458 42.2394 18.5458 45.2691C18.5462 48.5573 19.1469 51.7077 20.2491 54.6142Z" fill="#FBBB00"/>
<path d="M89.796 36.9014C90.3148 39.611 90.5854 42.4094 90.5854 45.2694C90.5854 48.4763 90.2453 51.6045 89.5974 54.622C87.398 64.8901 81.651 73.8561 73.6897 80.2011L73.6873 80.1987L60.7958 79.5465L58.9713 68.2545C64.2539 65.183 68.3824 60.3762 70.5571 54.622H46.3975V36.9014H70.9095H89.796Z" fill="#518EF8"/>
<path d="M73.687 80.1983L73.6895 80.2007C65.9468 86.3709 56.111 90.0627 45.4041 90.0627C28.198 90.0627 13.2386 80.5281 5.60742 66.4968L20.2491 54.6143C24.0647 64.71 33.8879 71.8967 45.4041 71.8967C50.3541 71.8967 54.9915 70.5701 58.9709 68.2541L73.687 80.1983Z" fill="#28B446"/>
<path d="M74.2431 10.7879L59.6063 22.6681C55.4879 20.1159 50.6197 18.6415 45.4041 18.6415C33.6271 18.6415 23.6202 26.1579 19.9958 36.6157L5.27713 24.6691H5.27466C12.7942 10.2957 27.9422 0.475586 45.4041 0.475586C56.3667 0.475586 66.4183 4.34709 74.2431 10.7879Z" fill="#F14336"/>
</svg>
